<svg width="486" height="400" viewBox="0 0 486 400" fill="none" xmlns="http://www.w3.org/2000/svg">
<g clip-path="url(#clip0)">
<path d="M242.586 400C348.645 400 434.622 375.395 434.622 345.044C434.622 314.692 348.645 290.087 242.586 290.087C136.527 290.087 50.5498 314.692 50.5498 345.044C50.5498 375.395 136.527 400 242.586 400Z" fill="#F5F5F5"/>
<path d="M425.295 131.258C425.295 131.258 391.277 165.331 410.48 215.891C429.684 266.451 377.56 350.534 377.56 350.534C377.56 350.534 378.108 350.451 379.156 350.27C449.025 337.916 483.739 257.877 444.888 198.42C430.463 176.317 418.584 150.383 425.295 131.258Z" fill="#2091F9"/>
<path d="M425.295 131.258C425.295 131.258 406.091 173.025 425.295 207.098C444.498 241.171 428.587 336.795 377.56 350.534" stroke="#535461" stroke-width="2" stroke-miterlimit="10"/>
<path d="M485.879 269.072C485.879 269.072 447.061 262.878 443.522 297.726C439.983 332.574 368.902 337.399 368.902 337.399C368.902 337.399 369.363 337.718 370.235 338.29C428.943 376.891 485.067 362.877 476.612 311.619C473.446 292.566 473.699 273.425 485.879 269.072Z" fill="#2091F9"/>
<path opacity="0.2" d="M485.879 269.072C485.879 269.072 447.061 262.878 443.522 297.726C439.983 332.574 368.902 337.399 368.902 337.399C368.902 337.399 369.363 337.718 370.235 338.29C428.943 376.891 485.067 362.877 476.612 311.619C473.446 292.566 473.699 273.425 485.879 269.072Z" fill="#F5F5F5"/>
<path d="M485.879 269.072C485.879 269.072 455.746 275.7 458.221 303.145C460.695 330.59 413.454 363.476 368.88 337.388" stroke="#535461" stroke-width="2" stroke-miterlimit="10"/>
<path opacity="0.2" d="M42.2211 0.0446057C37.7988 -0.109272 33.2668 0.0446055 29.1188 1.59438C17.8325 5.80953 12.483 19.5981 14.2223 31.5401C15.9616 43.4821 23.1163 53.8524 30.5398 63.3544C37.9634 72.8563 46.007 82.2374 50.0781 93.5804C52.1082 99.2464 53.0575 105.594 50.9944 111.249C47.8121 119.97 38.2158 124.845 29.0036 125.856C19.7913 126.867 10.5407 124.895 1.29549 124.208C-2.58364 123.933 -6.57251 123.9 -10.2267 125.175C-14.2375 126.565 -17.5789 129.401 -20.6515 132.358C-32.64 143.953 -42.2364 159.781 -40.6836 176.4C-38.9278 195.239 -23.2687 210.132 -6.1171 218.117C-0.43832 220.766 5.56967 222.909 10.5681 226.69C23.7363 236.659 26.6936 255.339 25.3823 271.831C24.071 288.324 19.6048 304.833 22.0903 321.182C25.0147 340.197 37.9579 357.371 55.4168 365.395C70.9717 372.539 90.4387 372.094 104.249 361.987C110.981 357.041 116.073 350.221 120.501 343.148C127.184 332.478 132.606 321.066 136.659 309.141C138.585 303.475 140.395 297.381 144.889 293.44C147.632 291.017 151.188 289.659 154.705 288.604C165.305 285.428 176.471 284.554 187.17 281.729C197.869 278.904 208.634 273.639 214.45 264.225C222.68 250.866 218.839 233.78 218.878 218.062C218.944 182.252 240.337 150.191 248.232 115.294C250.811 103.885 251.771 91.2612 246.01 81.0888C242.092 74.1478 235.492 69.2017 228.551 65.3548C213.298 56.8695 195.96 53.094 178.901 49.4174C155.193 44.3175 126.404 43.658 108.029 27.1601C90.3947 11.3326 66.2695 0.0446057 42.2211 0.0446057Z" fill="#2091F9"/>
<g opacity="0.5">
<path opacity="0.5" d="M128.22 138.649C128.219 130.018 126.869 121.44 124.22 113.227L117.636 92.7774C117.636 92.4366 117.636 92.1014 117.636 91.7662C117.839 78.6591 107.64 72.1193 103.711 72.8282C99.6892 73.5536 88.5292 67.9481 88.5292 67.9481V68.102C87.764 67.2197 87.0739 66.2748 86.4662 65.2772C88.3943 63.8706 90.0224 62.0921 91.2545 60.0463C92.4867 58.0004 93.2981 55.7285 93.6411 53.3641C93.9841 50.9997 93.8517 48.5904 93.2518 46.2779C92.6519 43.9655 91.5966 41.7964 90.1478 39.8983C91.354 38.9906 92.2739 37.7543 92.7979 36.3372C93.7086 33.7707 93.0118 30.8415 91.5304 28.5554C90.9005 27.601 90.1642 26.7215 89.3357 25.9339C88.0808 24.6887 86.7103 23.5662 85.2426 22.5816C81.5829 20.0426 77.5612 17.8608 73.1718 17.086C72.4122 16.9063 71.6214 16.9063 70.8618 17.086C70.2026 17.3524 69.5751 17.6916 68.9909 18.0972C65.9841 19.8118 62.2422 19.0699 58.7745 18.8885C55.3069 18.7072 51.0931 19.6799 49.9957 22.9388C49.6556 23.9445 49.6775 25.0326 49.4471 26.0658C48.8984 28.5938 46.9506 30.5558 45.4472 32.6606C43.9439 34.7654 42.8191 37.6067 44.0701 39.8929C44.498 40.6622 45.1674 41.3712 45.1674 42.2505C45.1674 42.8825 44.7943 43.4485 44.6187 44.0531C44.2401 45.427 44.9534 46.8009 46.0508 47.7956C46.5236 48.3062 47.0804 48.7319 47.6968 49.0541C49.4361 49.9444 51.4388 50.2192 53.211 51.0435C54.0956 51.4596 54.9071 52.0164 55.6142 52.6922C56.4802 53.6003 57.1572 54.672 57.6056 55.8448C58.054 57.0176 58.2648 58.268 58.2259 59.5233L58.5935 59.5617C58.5935 59.6717 58.5935 59.7761 58.5935 59.886C58.9775 59.93 59.3836 59.9684 59.7841 59.9849C60.3603 60.9165 61.0195 61.7939 61.7538 62.6063C61.6295 63.0753 61.4887 63.5516 61.3314 64.0352C60.042 64.931 49.4964 71.9654 37.5024 70.2727C24.7018 68.4647 17.3825 124.52 17.3825 124.52C16.9081 127.726 16.677 130.963 16.6912 134.203C16.6363 142.447 18.3646 153.235 27.9939 151.647L33.113 149.959V177.685C33.113 177.685 33.8428 185.28 31.2859 190.325C28.7291 195.37 39.335 193.578 39.335 193.578C39.335 193.578 39.741 194.002 40.4872 194.721L40.2513 195.386L40.564 195.705C39.1691 200.482 37.2883 205.102 34.9511 209.494L35.2529 209.648C35.0608 210.016 34.9511 210.197 34.9511 210.197C34.9511 210.197 38.8906 212.214 44.3115 214.814C48.6679 229.564 58.2039 263.725 55.0655 270.232L55.1533 270.418C55.7404 271.638 59.0214 278.832 58.3575 285.421C57.7595 291.313 65.9018 318.082 68.9415 327.804L67.504 328.095L72.6231 346.538L71.5257 358.475C71.5257 358.475 65.3093 375.11 79.9369 371.857C94.5646 368.603 90.5428 355.222 90.5428 355.222L90.9104 328.095C90.9104 328.095 89.5003 327.309 87.761 326.556C86.5649 323.319 83.9587 315.669 83.9587 310.377C83.9587 303.508 79.2017 273.848 79.2017 273.848V273.787V273.672V273.639L79.1743 273.243V273.177C79.1743 272.809 79.1139 272.303 79.07 271.688V271.655C78.5213 263.637 76.8753 236.395 78.0769 222.194C79.1336 221.472 80.233 220.815 81.369 220.227C84.9299 229.24 94.1092 253.591 93.5221 263.807C92.7924 276.447 93.341 266.522 93.5221 264.906C93.577 264.406 93.6154 265.011 93.6319 266.368C93.6319 266.615 93.6319 266.89 93.6319 267.181C93.6319 267.473 93.6319 267.797 93.6319 268.132C93.6319 268.467 93.6319 268.83 93.6319 269.231C93.6319 269.422 93.6319 269.616 93.6319 269.814C93.6319 270.21 93.6319 270.624 93.6319 271.056C93.6319 271.272 93.6319 271.492 93.6319 271.715C93.6319 272.814 93.6318 274.035 93.5934 275.304C93.5934 275.557 93.5934 275.813 93.5934 276.073C93.5934 276.848 93.5934 277.64 93.555 278.442C93.555 279.541 93.5111 280.607 93.4892 281.712C93.4343 284.185 93.363 286.685 93.2752 289.027C93.2752 289.287 93.2661 289.545 93.2478 289.801C93.2295 290.314 93.2094 290.816 93.1874 291.307C93.1655 291.798 93.1435 292.278 93.1216 292.747C93.0996 293.212 93.0759 293.665 93.0503 294.105C93.0228 294.621 92.9899 295.116 92.9625 295.588L90.9763 295.303L90.5538 299.875C89.8883 307.134 90.8248 314.452 93.2971 321.308C93.9775 323.187 94.5042 324.743 94.6195 325.298C94.9871 327.106 94.6195 340.136 94.6195 340.136C94.6195 340.136 96.8142 357.134 107.058 353.875C111.667 352.408 113.905 347.945 114.975 343.472C116.162 338.286 115.72 332.86 113.708 327.936C112.254 324.276 110.767 319.143 111.815 315.175C113.642 308.305 113.642 298.54 113.642 298.54L112.512 298.38C112.793 297.844 113.048 297.294 113.274 296.732C113.274 296.732 112.907 271.776 116.199 268.522C118.009 266.731 117.845 262.428 117.296 258.911C116.512 253.82 116.328 248.656 116.748 243.523C116.972 240.879 117.296 238.577 117.675 237.758C118.64 235.845 119.606 216.567 115.332 207.29L116.21 207.015L116.073 206.334L116.21 206.29C116.855 208.013 117.587 209.703 118.405 211.351C118.62 211.521 118.869 211.644 119.134 211.714C130.98 209.631 131.457 198.557 130.799 192.512C131.298 192.754 131.573 192.908 131.573 192.908L132.67 176.971C133.795 174.426 134.212 171.178 134.184 167.666C134.234 155.114 128.22 138.649 128.22 138.649ZM115.162 183.95C114.35 177.009 113.225 170.475 113.225 170.475L107.738 150.943V143.832L116.44 176.366L115.162 183.95Z" fill="url(#paint0_linear)"/>
</g>
<path d="M90.4933 290.637L90.0873 295.105C89.4466 302.204 90.3546 309.358 92.7484 316.071C93.4013 317.912 93.9116 319.428 94.0213 319.972C94.3724 321.742 94.0213 334.464 94.0213 334.464C94.0213 334.464 96.1392 351.078 106.021 347.896C110.465 346.467 112.605 342.098 113.658 337.729C114.8 332.662 114.372 327.366 112.429 322.55C111.025 318.972 109.587 313.944 110.602 310.08C112.369 303.365 112.369 293.824 112.369 293.824L90.4933 290.637Z" fill="#5A5773"/>
<path d="M79.9094 213.94C79.9094 213.94 93.6702 247.518 92.9624 259.883C92.2546 272.248 92.7868 262.532 92.9624 260.944C93.2752 258.114 92.9624 291.72 91.9035 295.566C91.9035 295.566 106.372 306.168 112.018 292.033C112.018 292.033 111.667 267.649 114.838 264.467C116.583 262.719 116.413 258.509 115.897 255.075C115.136 250.106 114.952 245.066 115.348 240.055C115.562 237.472 115.859 235.197 116.243 234.422C117.302 232.301 118.361 208.268 112.007 201.553L79.9094 213.94Z" fill="#605D82"/>
<path opacity="0.1" d="M93.6703 295.583C94.7293 291.697 95.042 258.114 94.7293 260.96C94.5537 262.549 94.0215 272.27 94.7293 259.9C95.437 247.529 81.6763 213.956 81.6763 213.956L112.462 202.097C112.32 201.915 112.172 201.745 112.023 201.585L79.915 213.956C79.915 213.956 93.6758 247.534 92.968 259.9C92.2602 272.265 92.7924 262.549 92.968 260.96C93.2808 258.13 92.968 291.736 91.9091 295.583C91.9091 295.583 97.6866 299.814 103.365 299.364C98.3121 298.985 93.6703 295.583 93.6703 295.583Z" fill="black"/>
<path d="M67.9099 322.797L72.848 340.823L71.789 352.485C71.789 352.485 65.792 368.741 79.9039 365.559C94.0158 362.377 90.1367 349.303 90.1367 349.303L90.4879 322.797C90.4879 322.797 84.842 319.615 82.373 319.972C79.9039 320.33 67.9099 322.797 67.9099 322.797Z" fill="#5A5773"/>
<path d="M43.5652 205.46C43.5652 205.46 59.795 258.119 55.9158 266.247C55.9158 266.247 59.795 274.024 59.0927 281.085C58.3904 288.147 70.3844 325.968 70.3844 325.968L88.0298 322.786C88.0298 322.786 83.794 312.185 83.794 305.47C83.794 298.754 79.2071 269.748 79.2071 269.748C79.2071 269.748 75.3279 216.732 79.9149 211.077L43.5652 205.46Z" fill="#605D82"/>
<g opacity="0.1">
<path opacity="0.1" d="M78.5432 215.385C75.6188 227.388 78.8505 271.556 78.8505 271.556C78.8505 271.556 83.4374 300.535 83.4374 307.278C83.4374 312.405 85.9009 319.791 87.0696 323.001L88.0243 322.83C88.0243 322.83 83.7885 312.229 83.7885 305.514C83.7885 298.798 79.2016 269.792 79.2016 269.792C79.2016 269.792 76.2498 229.426 78.5432 215.385Z" fill="black"/>
<path opacity="0.1" d="M55.9158 266.247L56.0036 266.429C56.031 266.247 56.0584 266.055 56.0749 265.879C56.0282 266.004 55.9751 266.127 55.9158 266.247Z" fill="black"/>
<path opacity="0.1" d="M79.1138 212.813C79.2741 212.203 79.5437 211.628 79.9094 211.115L43.5652 205.46C43.5652 205.46 43.7792 206.147 44.1468 207.372L79.1138 212.813Z" fill="black"/>
</g>
<path d="M128.248 186.374C128.248 186.374 133.542 206.158 117.664 208.994C117.406 208.926 117.165 208.807 116.956 208.642C116.956 208.642 107.782 190.616 114.838 183.549L128.248 186.374Z" fill="#FAC3CA"/>
<path d="M63.3229 54.9124C63.3229 54.9124 64.3819 69.7506 52.739 76.8235C41.0961 83.8964 77.4293 103.329 77.4293 103.329L96.4848 72.9326C96.4848 72.9326 88.3754 73.9822 83.4373 59.8584L63.3229 54.9124Z" fill="#FAC3CA"/>
<path opacity="0.1" d="M55.5591 77.8732C55.5591 77.8732 73.5557 115.337 89.7855 79.9945L114.838 204.394C114.838 204.394 76.0192 216.413 75.6735 222.068C75.3279 227.723 36.5146 207.581 36.5146 207.581C36.5146 207.581 44.9807 192.029 42.8683 182.488C40.7559 172.948 55.5591 77.8732 55.5591 77.8732Z" fill="black"/>
<path d="M55.5591 77.1642C55.5591 77.1642 73.5557 114.628 89.7855 79.2855L114.838 203.69C114.838 203.69 76.0192 215.709 75.6735 221.364C75.3279 227.019 36.5146 206.872 36.5146 206.872C36.5146 206.872 44.9807 191.32 42.8683 181.779C40.7559 172.239 55.5591 77.1642 55.5591 77.1642Z" fill="#E1E7EF"/>
<path d="M73.2047 332.695C73.2047 332.695 68.6178 322.446 79.2017 322.446C89.7857 322.446 88.0244 331.634 88.0244 331.634L73.2047 332.695Z" fill="#5A5773"/>
<path d="M97.198 306.184C97.198 306.184 92.9622 295.226 103.552 294.874C114.141 294.522 108.846 304.766 108.846 304.766L97.198 306.184Z" fill="#5A5773"/>
<path opacity="0.1" d="M88.2 69.201C88.2 69.201 98.9595 74.6966 102.844 73.9712C106.729 73.2458 116.956 79.9779 116.254 93.4093L122.629 113.446C125.18 121.481 126.475 129.862 126.47 138.292C126.47 138.292 135.644 163.737 130.706 175.047L129.647 190.6C129.647 190.6 121.532 186.005 113.06 187.418L115.195 174.717L105.648 138.66L89.7692 100.136L88.2 69.201Z" fill="black"/>
<path d="M88.2 68.5032C88.2 68.5032 98.9595 73.9988 102.844 73.2734C106.729 72.548 116.956 79.2801 116.254 92.7115L122.629 112.749C125.18 120.783 126.475 129.164 126.47 137.594C126.47 137.594 135.644 163.039 130.706 174.349L129.647 189.902C129.647 189.902 121.532 185.307 113.06 186.72L115.178 173.997L105.648 137.952L89.7856 99.4271L88.2 68.5032Z" fill="#67647E"/>
<path opacity="0.1" d="M106.021 111.446V151.383L111.316 170.469C111.316 170.469 114.844 191.32 113.785 197.684C112.726 204.048 95.7881 205.46 91.2012 200.157C86.6143 194.853 89.0833 149.597 89.0833 149.597L88.2 83.3468L88.9077 81.2255L106.021 111.446Z" fill="black"/>
<path d="M106.745 109.682V149.619L112.04 168.705C112.04 168.705 115.568 189.556 114.509 195.919C113.45 202.283 96.5122 203.696 91.9253 198.393C87.3384 193.089 89.8074 147.833 89.8074 147.833L88.9241 81.5662L106.745 109.682Z" fill="#67647E"/>
<path opacity="0.1" d="M35.626 142.903L46.9177 178.075L41.623 193.095C41.623 193.095 66.6755 219.6 82.5541 206.878C82.5541 206.878 84.3208 152.801 80.7874 140.078C77.2539 127.356 60.3218 84.5724 60.3218 84.5724L56.8158 73.2789L38.117 83.88L35.626 142.903Z" fill="black"/>
<path d="M34.7424 141.133V175.756C34.7424 175.756 35.4502 183.181 32.9757 188.127C30.5011 193.073 40.7394 191.309 40.7394 191.309C40.7394 191.309 65.7919 217.814 81.6705 205.092C81.6705 205.092 83.4373 151.015 79.9038 138.292C76.3703 125.57 59.4382 82.7863 59.4382 82.7863L55.9103 71.4763L37.2114 82.0773L34.7424 141.133Z" fill="#67647E"/>
<path opacity="0.1" d="M62.0885 65.3265C62.0885 65.3265 51.329 73.2787 38.9783 71.5091C26.6276 69.7395 19.5717 124.526 19.5717 124.526C19.5717 124.526 14.9848 152.801 29.8045 150.328L62.6207 139.369C62.6207 139.369 55.5647 131.945 56.6237 122.404L40.7396 128.763L41.4528 98.3718L62.0885 65.3265Z" fill="black"/>
<path opacity="0.1" d="M20.2741 123.817C20.2741 123.817 15.6872 152.092 30.5069 149.619L63.3231 138.66C63.3231 138.66 56.2671 131.241 57.3261 121.695L41.4529 128.059L20.2741 123.817Z" fill="black"/>
<path d="M56.5469 125.421C56.5469 125.421 67.5588 110.918 75.6682 117.881C83.7776 124.844 59.4548 137.605 59.4548 137.605L56.5469 125.421Z" fill="#FAC3CA"/>
<path d="M62.0885 64.6178C62.0885 64.6178 51.329 72.57 38.9783 70.8004C26.6276 69.0308 19.5717 123.817 19.5717 123.817C19.5717 123.817 14.9848 152.092 29.8045 149.619L62.6207 138.661C62.6207 138.661 55.5647 131.236 56.6237 121.695L40.7396 128.059L41.4528 97.6631L59.4493 82.8248L62.0885 64.6178Z" fill="#67647E"/>
<path opacity="0.1" d="M83.7885 60.5509L63.6741 55.6049C63.6741 55.6049 64.7221 56.7919 63.4985 61.4357C66.7357 65.1563 70.7136 70.0969 76.0248 70.0969C79.8256 70.104 83.5261 68.8756 86.5703 66.5961C85.4343 64.6842 84.5019 62.658 83.7885 60.5509Z" fill="black"/>
<path d="M75.6737 69.3934C85.419 69.3934 93.3191 61.4805 93.3191 51.7194C93.3191 41.9584 85.419 34.0455 75.6737 34.0455C65.9284 34.0455 58.0283 41.9584 58.0283 51.7194C58.0283 61.4805 65.9284 69.3934 75.6737 69.3934Z" fill="#FAC3CA"/>
<path opacity="0.1" d="M82.3619 44.0476C86.455 43.3496 90.9541 41.5306 92.3258 37.6067C93.2037 35.0952 92.5343 32.2374 91.1023 30.0007C89.6702 27.764 87.5633 26.0439 85.3906 24.5051C81.8626 22.021 77.9725 19.8887 73.7258 19.1413C72.9935 18.966 72.2304 18.966 71.4981 19.1413C70.8614 19.4024 70.2559 19.7342 69.693 20.1305C66.7905 21.8067 63.1802 21.0813 59.8169 20.9054C56.4535 20.7296 52.4207 21.6803 51.3618 24.8623C51.0326 25.846 51.0545 26.9067 50.8131 27.9179C50.2644 30.3909 48.4044 32.3144 46.9724 34.3752C45.5403 36.4361 44.4375 39.2224 45.6446 41.4426C46.0561 42.1955 46.7419 42.888 46.7419 43.7453C46.6361 44.3546 46.4516 44.9476 46.1933 45.5094C45.694 47.334 47.148 49.175 48.8269 50.0433C50.5058 50.9116 52.4372 51.1809 54.1491 51.9888C55.7513 52.7807 57.0928 54.0169 58.0139 55.5504C58.935 57.0839 59.397 58.85 59.345 60.6389C60.9032 60.8203 62.7193 60.9137 63.7728 59.7486C64.2447 59.2265 64.4751 58.5286 64.9031 57.9735C65.4517 57.2481 66.3077 56.8194 67.01 56.2369C70.7025 53.1978 68.0799 48.9991 70.1703 45.7237C71.2677 44.0366 73.0125 44.5532 74.7792 44.5806C77.3178 44.6401 79.8564 44.4617 82.3619 44.0476Z" fill="black"/>
<path d="M82.0108 43.6958C86.1039 42.9979 90.6031 41.1788 91.9748 37.2549C92.8526 34.7434 92.1833 31.8857 90.7512 29.649C89.3192 27.4123 87.2123 25.6921 85.0395 24.1533C81.5115 21.6693 77.6214 19.537 73.3747 18.7896C72.6425 18.6142 71.8793 18.6142 71.1471 18.7896C70.5103 19.0507 69.9048 19.3825 69.3419 19.7788C66.4394 21.455 62.8292 20.7296 59.4658 20.5537C56.1024 20.3778 52.0697 21.3286 51.0107 24.5106C50.6815 25.4943 50.7035 26.5549 50.462 27.5661C49.9134 30.0392 48.0534 31.9626 46.6213 34.0235C45.1893 36.0844 44.0864 38.8707 45.2935 41.0909C45.705 41.8438 46.3909 42.5363 46.3909 43.3936C46.285 44.0029 46.1006 44.5959 45.8422 45.1577C45.3429 46.9822 46.7969 48.8233 48.4758 49.6916C50.1548 50.5599 52.0861 50.8292 53.798 51.637C55.4068 52.4282 56.754 53.6668 57.6784 55.2048C58.6028 56.7427 59.0652 58.5148 59.0104 60.3092C60.5686 60.4905 62.3847 60.5839 63.4382 59.4189C63.9101 58.8968 64.1405 58.1988 64.5685 57.6438C65.1171 56.9183 65.9731 56.4897 66.6754 55.9071C70.368 52.8681 67.7453 48.6694 69.8357 45.394C70.9331 43.7068 72.6779 44.2234 74.4446 44.2509C76.9784 44.3021 79.5115 44.1163 82.0108 43.6958Z" fill="#4A4347"/>
<path opacity="0.1" d="M103.371 103.142C103.371 103.142 107.25 123.289 105.489 131.065C104.413 135.589 104.572 140.32 105.95 144.761" fill="black"/>
<path opacity="0.1" d="M40.6627 111.622C40.6627 111.622 38.9728 125.053 41.7875 127.878L40.6627 111.622Z" fill="black"/>
<path d="M139.188 277.145C139.407 277.145 139.616 277.058 139.77 276.904C139.925 276.749 140.011 276.539 140.011 276.321C140.011 276.102 139.925 275.892 139.77 275.738C139.616 275.583 139.407 275.496 139.188 275.496C138.97 275.496 138.761 275.583 138.606 275.738C138.452 275.892 138.365 276.102 138.365 276.321C138.365 276.539 138.452 276.749 138.606 276.904C138.761 277.058 138.97 277.145 139.188 277.145Z" fill="black"/>
<g opacity="0.5">
<path opacity="0.5" d="M392.605 181.109V180.653L242.904 65.3541C242.81 65.284 242.695 65.2462 242.578 65.2462C242.46 65.2462 242.346 65.284 242.251 65.3541L92.5454 180.653V359.371H92.8307V359.657H392.895V180.938L392.605 181.109Z" fill="url(#paint1_linear)"/>
</g>
<path d="M387.436 354.386H97.7358V181.823L242.586 70.2617L387.436 181.823V354.386Z" fill="white"/>
<path d="M377.011 344.159H108.161V184.016L242.586 80.4836L377.011 184.016V344.159Z" fill="#E0E0E0"/>
<path d="M288.19 78.0908L124.192 121.154L178.873 330.073L342.871 287.009L288.19 78.0908Z" fill="#2091F9"/>
<path d="M328.179 109.83H158.639V325.809H328.179V109.83Z" fill="#F5F5F5"/>
<path opacity="0.05" d="M99.1074 182.098L243.958 268.38L99.1074 354.661V182.098Z" fill="black"/>
<path d="M98.0103 182.098L242.86 268.38L98.0103 354.661V182.098Z" fill="white"/>
<path opacity="0.05" d="M386.613 182.098L241.763 268.38L386.613 354.661V182.098Z" fill="black"/>
<path d="M387.71 182.098L242.86 268.38L387.71 354.661V182.098Z" fill="white"/>
<path opacity="0.05" d="M98.0103 351.913L242.86 238.703L387.71 351.913H98.0103Z" fill="black"/>
<path d="M98.0103 354.661L242.86 241.451L387.71 354.661H98.0103Z" fill="white"/>
<path d="M127.447 367.768C127.447 367.768 120.171 343.038 128.813 324.825C132.485 317.212 133.592 308.611 131.968 300.315C131.167 296.383 130.008 292.532 128.505 288.812" stroke="#535461" stroke-width="2" stroke-miterlimit="10"/>
<path d="M133.877 277.304C133.877 280.338 128.39 289.125 128.39 289.125C128.39 289.125 122.904 280.333 122.904 277.304C122.904 275.847 123.482 274.449 124.511 273.418C125.54 272.388 126.935 271.809 128.39 271.809C129.845 271.809 131.241 272.388 132.27 273.418C133.299 274.449 133.877 275.847 133.877 277.304Z" fill="#6C63FF"/>
<path d="M142.958 294.099C141.312 296.644 131.94 301.04 131.94 301.04C131.94 301.04 132.11 290.675 133.756 288.131C134.577 286.98 135.809 286.19 137.196 285.926C138.583 285.662 140.018 285.943 141.204 286.712C142.389 287.481 143.232 288.677 143.559 290.053C143.886 291.429 143.67 292.878 142.958 294.099Z" fill="#6C63FF"/>
<path d="M142.541 322.792C139.836 324.155 129.531 323.215 129.531 323.215C129.531 323.215 134.903 314.356 137.602 312.993C138.249 312.631 138.961 312.404 139.697 312.325C140.433 312.246 141.178 312.317 141.886 312.534C142.594 312.751 143.251 313.109 143.817 313.586C144.383 314.064 144.847 314.652 145.18 315.314C145.514 315.976 145.71 316.699 145.757 317.439C145.804 318.179 145.701 318.921 145.455 319.62C145.208 320.319 144.823 320.961 144.322 321.507C143.821 322.053 143.215 322.492 142.541 322.797V322.792Z" fill="#6C63FF"/>
<path d="M137.361 344.439C134.925 346.242 124.61 347.055 124.61 347.055C124.61 347.055 128.407 337.416 130.843 335.613C132.015 334.83 133.443 334.528 134.831 334.771C136.219 335.014 137.461 335.782 138.299 336.916C139.137 338.051 139.507 339.465 139.332 340.866C139.158 342.266 138.452 343.546 137.361 344.439Z" fill="#6C63FF"/>
<path d="M120.413 301.623C122.607 303.733 132.697 305.926 132.697 305.926C132.697 305.926 130.223 295.863 128.05 293.753C126.993 292.817 125.617 292.325 124.208 292.379C122.798 292.433 121.464 293.028 120.481 294.041C119.498 295.055 118.943 296.408 118.93 297.821C118.917 299.234 119.448 300.597 120.413 301.628V301.623Z" fill="#6C63FF"/>
<path d="M114.673 327.018C117.378 328.381 127.682 327.441 127.682 327.441C127.682 327.441 122.311 318.582 119.611 317.219C118.322 316.636 116.858 316.574 115.525 317.046C114.191 317.518 113.091 318.487 112.454 319.752C111.816 321.017 111.692 322.48 112.105 323.834C112.519 325.189 113.439 326.332 114.673 327.024V327.018Z" fill="#6C63FF"/>
<path d="M112.479 352.463C114.915 354.265 125.23 355.079 125.23 355.079C125.23 355.079 121.433 345.439 118.997 343.637C118.422 343.166 117.757 342.817 117.043 342.61C116.329 342.404 115.581 342.346 114.844 342.438C114.107 342.53 113.396 342.771 112.755 343.147C112.113 343.522 111.555 344.025 111.113 344.623C110.671 345.221 110.355 345.903 110.184 346.627C110.013 347.351 109.991 348.103 110.119 348.836C110.247 349.569 110.522 350.268 110.927 350.892C111.333 351.515 111.861 352.05 112.479 352.463Z" fill="#6C63FF"/>
<path opacity="0.5" d="M236.55 119.722H168.515V125.218H236.55V119.722Z" fill="#6C63FF"/>
<path opacity="0.5" d="M315.56 141.705H168.515V147.201H315.56V141.705Z" fill="#6C63FF"/>
<path opacity="0.5" d="M315.56 155.994H168.515V161.489H315.56V155.994Z" fill="#6C63FF"/>
<path opacity="0.4" d="M315.56 170.282H168.515V175.778H315.56V170.282Z" fill="#6C63FF"/>
<path opacity="0.4" d="M315.56 184.571H168.515V190.067H315.56V184.571Z" fill="#6C63FF"/>
<path opacity="0.3" d="M252.462 198.86H168.515V204.355H252.462V198.86Z" fill="#6C63FF"/>
<path opacity="0.3" d="M283.188 213.148H168.515V218.644H283.188V213.148Z" fill="#6C63FF"/>
</g>
<defs>
<linearGradient id="paint0_linear" x1="16.6967" y1="194.644" x2="134.124" y2="194.644" gradientUnits="userSpaceOnUse">
<stop stop-color="#808080" stop-opacity="0.25"/>
<stop offset="0.54" stop-color="#808080" stop-opacity="0.12"/>
<stop offset="1" stop-color="#808080" stop-opacity="0.1"/>
</linearGradient>
<linearGradient id="paint1_linear" x1="191364" y1="218091" x2="191364" y2="60360.5" gradientUnits="userSpaceOnUse">
<stop stop-color="#808080" stop-opacity="0.25"/>
<stop offset="0.54" stop-color="#808080" stop-opacity="0.12"/>
<stop offset="1" stop-color="#808080" stop-opacity="0.1"/>
</linearGradient>
<clipPath id="clip0">
<rect width="526.848" height="400" fill="white" transform="translate(-40.8484)"/>
</clipPath>
</defs>
</svg>
